# xmcd CD database file generated by Grip 2.91
# 
# Track frame offsets:
#       150
#       22497
#       44070
#       67235
#       89010
#       110182
#       132592
#       159657
#       179020
#       199720
#       220272
#       238427
#       255382
# 
# Disc length: 3708 seconds
# 
# Revision: 3
# Processed by: cddbd v1.5.1PL0 Copyright (c) Steve Scherf et al.
# Submitted via: Grip 2.91
# 
DISCID=de0e7a0d
DTITLE=Bons Fluidos - Musica para a alma
DYEAR=1900
DGENRE=New Age
TTITLE0=The Temple
TTITLE1=Another Way
TTITLE2=Early Morning
TTITLE3=Clarity
TTITLE4=Wind and Voices
TTITLE5=Two Souls
TTITLE6=Ray of Light
TTITLE7=African Spirit
TTITLE8=Anna
TTITLE9=The Journey
TTITLE10=Mirage
TTITLE11=Ethnicmosphere
TTITLE12=Moving Atoms
EXTD=
EXTT0=
EXTT1=
EXTT2=
EXTT3=
EXTT4=
EXTT5=
EXTT6=
EXTT7=
EXTT8=
EXTT9=
EXTT10=
EXTT11=
EXTT12=
PLAYORDER=
